<?xml version="1.0" encoding="utf-8"?>
<!-- Generator: Adobe Illustrator 16.0.0, SVG Export Plug-In . SVG Version: 6.00 Build 0)  -->
<!DOCTYPE svg PUBLIC "-//W3C//DTD SVG 1.1//EN" "http://www.w3.org/Graphics/SVG/1.1/DTD/svg11.dtd">
<svg version="1.1" id="Layer_1" xmlns="http://www.w3.org/2000/svg" xmlns:xlink="http://www.w3.org/1999/xlink" x="0px" y="0px"
	 width="200px" height="30px" viewBox="300 45 200 30" enable-background="new 300 45 200 30" xml:space="preserve">
<rect x="-0.117" y="0.101" display="none" width="800" height="120"/>
<g>
	<path fill="#24B6C7" d="M310.021,45h-5.286c-2.49,0-3.734,1.247-3.734,3.739v23.855c0,1.17,0.671,1.754,2.014,1.754
		c1.328,0,1.993-0.585,1.993-1.754v-9.315h4.72c2.909,0,5.24-0.843,6.996-2.528c1.755-1.685,2.633-3.85,2.633-6.496
		c0-2.897-0.814-5.163-2.444-6.799C315.282,45.819,312.984,45,310.021,45z M313.859,58.087c-0.993,0.982-2.315,1.473-3.965,1.473
		h-4.888v-9.985c0-0.529,0.237-0.793,0.713-0.793h4.217c1.804,0,3.157,0.457,4.059,1.368c0.902,0.912,1.354,2.28,1.354,4.105
		C315.349,55.828,314.852,57.104,313.859,58.087z"/>
	<path fill="#24B6C7" d="M337.633,52.019c-1.315,0-1.972,0.571-1.972,1.713v1.148c-0.658-1.002-1.473-1.758-2.444-2.266
		c-0.972-0.509-2.095-0.763-3.367-0.763c-2.84,0-5.087,1.038-6.744,3.112c-1.657,2.075-2.485,4.804-2.485,8.188
		c0,3.467,0.797,6.229,2.392,8.281c1.594,2.055,3.747,3.082,6.461,3.082c1.427,0,2.656-0.278,3.691-0.836
		c1.035-0.557,1.867-1.399,2.497-2.526v1.566c0,1.087,0.643,1.628,1.93,1.628c1.314,0,1.972-0.57,1.972-1.712V53.731
		C339.562,52.59,338.92,52.019,337.633,52.019z M335.661,65.073c0,1.686-0.486,3.082-1.459,4.188c-0.972,1.107-2.262,1.66-3.87,1.66
		c-1.86,0-3.286-0.694-4.279-2.088c-0.993-1.392-1.49-3.286-1.49-5.682c0-2.298,0.508-4.157,1.522-5.578
		c1.013-1.42,2.429-2.13,4.247-2.13c1.595,0,2.881,0.557,3.86,1.671c0.979,1.114,1.468,2.514,1.468,4.199L335.661,65.073
		L335.661,65.073z"/>
	<path fill="#24B6C7" d="M353.876,70.213c-0.252,0-0.77,0.146-1.553,0.438c-0.322,0.125-0.686,0.188-1.091,0.188
		c-0.728,0-1.27-0.241-1.627-0.721c-0.356-0.48-0.534-1.209-0.534-2.184V55.653h3.818c0.615,0,1.048-0.122,1.3-0.365
		s0.378-0.693,0.378-1.347c0-0.599-0.115-1.024-0.346-1.275c-0.231-0.251-0.676-0.376-1.332-0.376h-3.818v-4.679
		c0-1.142-0.657-1.713-1.972-1.713c-1.315,0-1.973,0.571-1.973,1.713v4.679h-1.845c-0.7,0-1.169,0.119-1.406,0.354
		c-0.238,0.238-0.356,0.669-0.356,1.296c0,0.626,0.111,1.069,0.335,1.326c0.224,0.258,0.91,0.386,2.057,0.386h1.216v12.45
		c0,2.145,0.473,3.749,1.416,4.815c0.944,1.064,2.36,1.598,4.248,1.598c1.189,0,2.252-0.229,3.188-0.689
		c0.938-0.461,1.406-1.037,1.406-1.733c0-0.474-0.151-0.904-0.451-1.296C354.634,70.408,354.281,70.213,353.876,70.213z"/>
	<path fill="#24B6C7" d="M358.999,52.019c-1.301,0-1.95,0.557-1.95,1.671v18.945c0,1.143,0.636,1.713,1.909,1.713
		c1.342,0,2.014-0.57,2.014-1.713V53.69C360.972,52.576,360.314,52.019,358.999,52.019z"/>
	<path fill="#24B6C7" d="M373.053,51.852c-3.091,0-5.518,1.065-7.279,3.196c-1.762,2.13-2.643,4.902-2.643,8.315
		c0,3.396,0.902,6.105,2.705,8.125c1.805,2.02,4.28,3.028,7.427,3.028c1.832,0,3.587-0.38,5.266-1.139
		c1.678-0.759,2.517-1.604,2.517-2.537c0-0.417-0.178-0.83-0.534-1.232c-0.356-0.403-0.766-0.605-1.228-0.605
		c-0.377,0-0.923,0.229-1.636,0.688c-1.217,0.822-2.65,1.231-4.301,1.231c-1.748,0-3.175-0.56-4.279-1.681
		c-1.104-1.12-1.741-2.67-1.909-4.646h12.377c1.637,0,2.454-0.969,2.454-2.905c0-2.979-0.811-5.364-2.434-7.154
		C377.934,52.747,375.766,51.852,373.053,51.852z M367.264,61.127c0.209-1.783,0.835-3.176,1.877-4.179
		c1.041-1.002,2.332-1.504,3.87-1.504c1.469,0,2.653,0.509,3.556,1.525c0.902,1.017,1.396,2.402,1.479,4.158H367.264z"/>
	<path fill="#24B6C7" d="M394.861,51.852c-1.427,0-2.682,0.3-3.765,0.898c-1.085,0.599-2.004,1.498-2.76,2.695v-1.755
		c0-1.114-0.657-1.671-1.972-1.671c-1.301,0-1.95,0.557-1.95,1.671v18.945c0,1.143,0.649,1.713,1.95,1.713
		c1.314,0,1.972-0.57,1.972-1.713V62.212c0-2.13,0.507-3.777,1.521-4.939c1.014-1.164,2.353-1.745,4.017-1.745
		c1.469,0,2.574,0.421,3.315,1.263c0.741,0.844,1.111,2.107,1.111,3.792v12.053c0,1.142,0.672,1.712,2.014,1.712
		c1.288,0,1.931-0.57,1.931-1.712V59.81c0-2.437-0.648-4.373-1.94-5.807C399.012,52.569,397.197,51.852,394.861,51.852z"/>
	<path fill="#24B6C7" d="M416.02,70.213c-0.252,0-0.768,0.146-1.553,0.438c-0.32,0.125-0.686,0.188-1.09,0.188
		c-0.727,0-1.27-0.241-1.627-0.721c-0.355-0.48-0.535-1.209-0.535-2.184V55.653h3.818c0.615,0,1.049-0.122,1.301-0.365
		s0.377-0.693,0.377-1.347c0-0.599-0.115-1.024-0.346-1.275c-0.23-0.251-0.674-0.376-1.332-0.376h-3.818v-4.679
		c0-1.142-0.656-1.713-1.971-1.713c-1.316,0-1.973,0.571-1.973,1.713v4.679h-1.846c-0.699,0-1.168,0.119-1.406,0.354
		c-0.238,0.238-0.355,0.669-0.355,1.296c0,0.626,0.111,1.069,0.336,1.326c0.223,0.258,0.908,0.386,2.055,0.386h1.217v12.45
		c0,2.145,0.471,3.749,1.416,4.815c0.945,1.064,2.359,1.598,4.248,1.598c1.189,0,2.252-0.229,3.189-0.689
		c0.936-0.461,1.404-1.037,1.404-1.733c0-0.474-0.15-0.904-0.449-1.296C416.779,70.408,416.426,70.213,416.02,70.213z"/>
	<path fill="#24B6C7" d="M423.635,58.223c0-0.766,0.35-1.421,1.049-1.964s1.656-0.814,2.875-0.814c1.453,0,2.809,0.432,4.068,1.295
		c0.615,0.39,1.133,0.585,1.553,0.585c0.461,0,0.871-0.199,1.229-0.596c0.355-0.397,0.535-0.853,0.535-1.368
		c0-0.822-0.723-1.612-2.162-2.371c-1.441-0.759-3.098-1.139-4.973-1.139c-2.391,0-4.342,0.609-5.852,1.828
		c-1.51,1.218-2.266,2.837-2.266,4.856c0,0.969,0.186,1.838,0.553,2.61h6.451c-0.918-0.272-1.592-0.551-2.012-0.835
		C423.984,59.838,423.635,59.142,423.635,58.223z"/>
	<path fill="#24B6C7" d="M427.074,65.115c1.693,0.392,2.838,0.806,3.441,1.243c0.6,0.439,0.902,1.021,0.902,1.744
		c0,0.892-0.361,1.584-1.082,2.079c-0.719,0.494-1.701,0.74-2.945,0.74c-1.652,0-3.26-0.507-4.826-1.523
		c-0.574-0.404-1.041-0.606-1.406-0.606c-0.447,0-0.846,0.214-1.195,0.638s-0.525,0.866-0.525,1.325c0,0.99,0.809,1.863,2.424,2.622
		c1.617,0.759,3.43,1.139,5.445,1.139c2.391,0,4.334-0.623,5.83-1.87c1.498-1.245,2.246-2.829,2.246-4.752
		c0-1.081-0.225-2.026-0.658-2.842h-7.916C426.9,65.072,426.982,65.095,427.074,65.115z"/>
	<path fill="#24B6C7" d="M453.855,68.709c-0.391,0-0.895,0.216-1.512,0.647c-1.412,1.044-2.873,1.565-4.383,1.565
		c-1.791,0-3.248-0.701-4.373-2.108c-1.127-1.407-1.689-3.293-1.689-5.661c0-2.437,0.561-4.331,1.678-5.682
		c1.119-1.351,2.594-2.026,4.428-2.026c1.523,0,2.955,0.502,4.301,1.504c0.6,0.487,1.117,0.731,1.551,0.731
		c0.477,0,0.904-0.208,1.279-0.626c0.377-0.418,0.566-0.857,0.566-1.316c0-0.849-0.746-1.709-2.244-2.579
		c-1.496-0.871-3.271-1.306-5.328-1.306c-3.006,0-5.453,1.027-7.342,3.081c-1.502,1.635-2.398,3.711-2.705,6.214h-11.387
		c0.617,0.183,1.342,0.365,2.184,0.543c2.559,0.585,4.283,1.379,5.172,2.382c0.266,0.301,0.488,0.631,0.674,0.979h3.346
		c0.287,2.544,1.166,4.663,2.654,6.342c1.846,2.082,4.229,3.123,7.152,3.123c2.195,0,4.057-0.456,5.58-1.367
		c1.523-0.912,2.287-1.78,2.287-2.601c0-0.446-0.193-0.864-0.576-1.253C454.781,68.903,454.344,68.709,453.855,68.709z"/>
	<path fill="#24B6C7" d="M474.805,52.019c-1.314,0-1.971,0.571-1.971,1.713v1.148c-0.658-1.002-1.471-1.757-2.445-2.266
		c-0.973-0.508-2.094-0.763-3.365-0.763c-2.84,0-5.088,1.038-6.746,3.113c-1.656,2.075-2.484,4.804-2.484,8.188
		c0,3.467,0.797,6.229,2.391,8.282c1.594,2.055,3.748,3.081,6.461,3.081c1.428,0,2.658-0.278,3.693-0.836
		c1.033-0.557,1.865-1.397,2.496-2.526v1.566c0,1.087,0.643,1.629,1.93,1.629c1.314,0,1.973-0.571,1.973-1.713V53.732
		C476.736,52.59,476.092,52.019,474.805,52.019z M472.834,65.073c0,1.686-0.486,3.082-1.459,4.188
		c-0.973,1.107-2.262,1.66-3.871,1.66c-1.859,0-3.285-0.694-4.277-2.088c-0.994-1.392-1.492-3.286-1.492-5.682
		c0-2.297,0.508-4.157,1.521-5.577c1.016-1.42,2.432-2.131,4.248-2.131c1.596,0,2.883,0.557,3.863,1.671
		c0.977,1.114,1.467,2.514,1.467,4.199V65.073L472.834,65.073z"/>
	<path fill="#24B6C7" d="M497.059,54.003c-1.295-1.434-3.109-2.152-5.443-2.152c-1.428,0-2.682,0.3-3.768,0.898
		c-1.082,0.599-2.002,1.498-2.758,2.695V53.69c0-1.115-0.656-1.671-1.973-1.671c-1.299,0-1.949,0.557-1.949,1.671v18.945
		c0,1.142,0.65,1.712,1.949,1.712c1.316,0,1.973-0.57,1.973-1.712V62.212c0-2.13,0.508-3.776,1.521-4.939
		c1.014-1.164,2.354-1.745,4.018-1.745c1.469,0,2.572,0.421,3.314,1.263c0.74,0.844,1.111,2.107,1.111,3.791v12.053
		c0,1.143,0.672,1.713,2.014,1.713c1.287,0,1.93-0.57,1.93-1.713V59.81C498.998,57.373,498.352,55.438,497.059,54.003z"/>
</g>
</svg>
